<svg width="531" height="32" viewBox="0 0 531 32" fill="none" xmlns="http://www.w3.org/2000/svg">
<path fill-rule="evenodd" clip-rule="evenodd" d="M93.9505 1.49062C93.9557 0.662208 94.6315 -0.00515158 95.4599 2.997e-05C129.944 0.215724 164.428 0.505709 198.911 0.795689C219.849 0.971755 240.785 1.14782 261.722 1.30725C293.567 0.633276 322.076 0.215712 342.656 0.215712C352.786 0.215712 373.011 0.64771 388.166 1.07917C395.742 1.29484 402.071 1.51095 405.247 1.67373C406.037 1.71425 406.654 1.75252 407.05 1.7882C407.221 1.8036 407.437 1.82541 407.608 1.86264C407.651 1.87202 407.755 1.89548 407.874 1.94232C407.925 1.96249 408.031 2.00669 408.153 2.08575C414.936 2.018 421.72 1.96916 428.503 1.94142C444.272 1.87692 475.806 1.87693 499.452 1.89305C511.276 1.90111 521.13 1.9132 526.058 1.92327C527.29 1.92579 528.214 1.92819 528.785 1.93037C529.07 1.93145 529.27 1.93249 529.377 1.9335L529.447 1.93437L529.482 1.93516L529.516 1.93647C529.535 1.9375 529.605 1.94341 529.657 1.94993C530.473 2.34289 530.674 4.2944 529.667 4.91848C529.61 4.92584 529.534 4.93234 529.515 4.93342C529.49 4.9346 529.468 4.93504 529.462 4.93517L529.461 4.93519C529.441 4.93558 529.417 4.93585 529.393 4.93606C529.015 4.93941 527.035 4.94141 523.099 4.94141C489.043 4.94141 455.027 5.05526 421.011 6.23477C353.806 8.56516 286.686 12.7027 219.738 18.8971C293.804 17.3895 367.985 17.0376 441.971 21.358C449.731 21.8112 465.357 22.9938 474.678 24.392C474.762 24.4045 474.906 24.4121 475.185 24.4221L475.218 24.4232C475.45 24.4315 475.765 24.4427 476.061 24.4785C476.325 24.5104 476.822 24.5848 477.261 24.8633C477.51 25.0216 477.805 25.2859 477.982 25.6997C478.163 26.1235 478.154 26.5445 478.068 26.8864C477.904 27.5454 477.585 28.1281 477.094 28.5827C476.61 29.0302 476.04 29.2786 475.484 29.4086C474.429 29.6555 473.232 29.5168 472.186 29.3223C471.402 29.1765 470.555 28.967 469.765 28.7717C469.482 28.7016 469.206 28.6333 468.943 28.5705C467.884 28.3173 467.009 28.1451 466.333 28.13C453.461 27.844 440.597 27.3372 427.747 26.8186L425.43 26.7249C413.35 26.2366 401.283 25.7488 389.211 25.4335C332.228 23.9452 275.214 24.5123 218.249 26.7272C205.431 27.2255 192.577 28.1757 179.683 29.1288C176.76 29.345 173.834 29.5612 170.906 29.7724C155.082 30.9139 139.214 31.9054 123.385 31.9054C122.14 31.9054 121.166 31.8771 120.457 31.8186C120.105 31.7896 119.782 31.7505 119.509 31.6942C119.321 31.6557 118.863 31.559 118.488 31.2545C118.26 31.0689 117.898 30.6652 117.888 30.0348C117.878 29.4452 118.188 29.0527 118.347 28.8864C118.642 28.5776 119.024 28.4134 119.205 28.3385C119.669 28.1464 120.334 27.9626 121.096 27.7834C124.191 27.0551 130.333 26.0786 137.619 25.0488C141.001 24.571 144.644 24.0795 148.369 23.5937C110.377 24.574 75.778 25.6409 38.015 26.9431C30.6775 27.1961 23.3469 27.4493 16.0203 27.7637C15.9764 27.8004 15.9381 27.8283 15.9095 27.848C15.8112 27.9161 15.724 27.9591 15.6715 27.9829C15.5676 28.0301 15.4794 28.0561 15.4384 28.0675C15.3892 28.0813 15.3462 28.0909 15.3151 28.0974C15.2052 28.1203 15.0839 28.136 14.9858 28.1475C14.7702 28.1727 14.452 28.2011 14.0265 28.2339C13.749 28.2552 13.4833 28.1996 13.2504 28.085C12.2264 28.0987 10.9198 28.1276 9.76169 28.1531C9.61974 28.1562 9.48003 28.1593 9.34334 28.1623C8.56306 28.1794 7.87825 28.1939 7.45506 28.1988C7.26958 28.2009 7.06785 28.2024 6.94825 28.1956C6.92786 28.1944 6.88959 28.192 6.84391 28.1867C6.82125 28.1841 6.78237 28.1791 6.73497 28.1703C6.70266 28.1642 6.595 28.1438 6.46534 28.0936C6.39414 28.0638 6.21869 27.9709 6.1177 27.9027C5.96246 27.7714 5.65312 27.3413 5.54468 27.031C5.50714 26.6441 5.68199 25.9894 5.84445 25.7451C5.96355 25.6154 6.18406 25.439 6.27552 25.3836C6.43103 25.2967 6.56728 25.2583 6.60127 25.2487L6.60295 25.2483C6.65714 25.233 6.70158 25.2237 6.72585 25.2189C6.80618 25.2031 6.87943 25.1956 6.90319 25.1932L6.90485 25.193C6.94248 25.1891 6.98272 25.1857 7.0221 25.1826C7.58833 25.1382 9.82952 25.0307 14.9246 24.8083C22.5885 24.4737 30.2541 24.2089 37.9116 23.9449C76.99 22.5974 112.682 21.5016 152.252 20.4931C161.53 20.2566 170.811 20.0215 180.095 19.7947C180.611 19.7396 181.107 19.6872 181.579 19.6379C240.873 13.4507 300.311 8.91599 359.833 5.8597C317.3 6.77105 274.767 8.2222 232.225 9.67366C230.076 9.74699 227.927 9.82032 225.777 9.89358C158.195 12.1972 90.5904 14.4327 22.9714 14.4327C16.303 14.4327 11.2904 14.3889 7.78322 14.3063C6.0307 14.2651 4.64319 14.2139 3.60797 14.1528C2.62263 14.0947 1.83292 14.0223 1.36465 13.9078C1.25264 13.8805 1.0377 13.8234 0.821954 13.7039C0.717952 13.6463 0.501619 13.5143 0.314463 13.2676C0.0937962 12.9767 -0.0823263 12.5188 0.0402985 11.9905C0.14496 11.5396 0.417166 11.2704 0.550013 11.1569C0.696627 11.0317 0.838656 10.9559 0.922885 10.915C1.09418 10.8319 1.26568 10.7804 1.38495 10.7483C1.85524 10.6217 2.62796 10.5121 3.57595 10.4067C5.53701 10.1889 8.68755 9.94605 12.8497 9.68305C29.5157 8.62994 62.832 7.2272 102.791 5.82514C124.687 5.05685 148.586 4.28849 172.843 3.57778C147.04 3.36431 121.238 3.16133 95.4411 2.99997C94.6127 2.99479 93.9453 2.31903 93.9505 1.49062ZM261.742 4.30749C211.083 5.37991 151.969 7.10145 102.896 8.82329C77.5707 9.7119 54.9306 10.6002 37.5137 11.399C100.226 11.1118 162.937 9.03382 225.675 6.89532C227.83 6.82187 229.985 6.74835 232.139 6.67483C253.538 5.94474 274.94 5.21453 296.345 4.55301C284.811 4.47807 273.276 4.3953 261.742 4.30749ZM529.396 4.93393C529.401 4.93401 529.398 4.93399 529.393 4.93382L529.396 4.93393ZM2.07692 10.9936C2.06105 10.9898 2.06335 10.9895 2.07928 10.9942C2.07848 10.994 2.07769 10.9938 2.07692 10.9936ZM2.1467 13.6503C2.14312 13.6515 2.1412 13.6521 2.14114 13.6521C2.14108 13.652 2.14287 13.6514 2.1467 13.6503ZM7.21247 28.1772C7.21306 28.1771 7.21391 28.177 7.21507 28.1769C7.2071 28.1779 7.20551 28.1779 7.21247 28.1772ZM180.291 22.7909C170.102 23.8819 151.863 26.0657 138.039 28.0193C136.163 28.2844 134.374 28.5446 132.7 28.7966C145.33 28.5105 157.998 27.6957 170.691 26.7802C173.606 26.5699 176.523 26.3542 179.442 26.1385C192.338 25.185 205.256 24.23 218.132 23.7294C275.155 21.5124 332.235 20.9443 389.289 22.4345C401.383 22.7504 413.471 23.2391 425.546 23.7272L427.868 23.821C432.748 24.018 437.626 24.2131 442.503 24.3949C442.261 24.3803 442.025 24.3663 441.796 24.3529C354.776 19.2714 267.468 20.6621 180.291 22.7909ZM120.038 28.7367C120.038 28.7364 120.05 28.7392 120.071 28.7464C120.047 28.7407 120.037 28.7371 120.038 28.7367ZM120.303 31.1321C120.29 31.1394 120.282 31.143 120.282 31.143C120.281 31.1429 120.287 31.1392 120.303 31.1321Z" fill="black"/>
</svg>
