<svg width="156" height="60" viewBox="0 0 156 60" fill="none" xmlns="http://www.w3.org/2000/svg">
<path fill-rule="evenodd" clip-rule="evenodd" d="M11.4819 11.3685H19.9372C20.9793 11.3685 21.8332 12.2147 21.8332 13.2472V21.6788C21.8332 22.7113 20.9793 23.5575 19.9372 23.5575H11.4819C10.4399 23.5575 9.58594 22.7113 9.58594 21.6788V13.2472C9.58594 12.2147 10.4399 11.3685 11.4819 11.3685Z" fill="#2791D0"/>
<path d="M38.7308 19.6651V5.60181L44.542 5.61894V20.8412C44.542 22.1543 44.3669 23.3497 44.0167 24.4315C43.6664 25.5133 43.1411 26.4387 42.4385 27.212C41.738 27.9832 40.8668 28.5787 39.8247 28.9986C38.7827 29.4184 37.585 29.6284 36.2273 29.6284C35.2479 29.6284 34.5302 29.5448 34.074 29.3799L32.6709 23.5553C33.4276 23.8531 34.2729 24.003 35.209 24.003C36.1451 24.003 36.8672 23.8402 37.3796 23.5146C37.8919 23.189 38.2443 22.7177 38.4389 22.1008C38.6335 21.4796 38.7308 20.6677 38.7308 19.6651Z" fill="#2791D0"/>
<path d="M58.3675 21.7987V11.6898L63.7096 11.1607V28.8143L58.7848 29.3434V26.6807H58.7178C58.2508 27.739 57.5914 28.4951 56.7396 28.9471C55.8878 29.3991 55.0166 29.6262 54.1258 29.6262C49.8409 29.6262 47.6963 27.1391 47.6963 22.165V11.6898L53.0384 11.1607V21.7987C53.0384 22.7798 53.274 23.5339 53.7475 24.0566C54.221 24.5814 54.8695 24.8427 55.6932 24.8427C56.5385 24.8427 57.1958 24.5814 57.6627 24.0566C58.1319 23.5339 58.3675 22.782 58.3675 21.7987Z" fill="#2791D0"/>
<path d="M71.5897 27.6233V35.3672L66.2627 35.3822V11.4263L71.2546 11.4092V14.1062H71.3216C71.7886 13.1358 72.5128 12.356 73.4922 11.7648C74.4715 11.1757 75.5244 10.8801 76.6486 10.8801C78.3176 10.8801 79.8093 11.3321 81.1238 12.2361C82.4382 13.1401 83.4673 14.3225 84.2131 15.7856C84.959 17.2466 85.3309 18.7997 85.3309 20.4427C85.3309 22.0301 84.9158 23.5339 84.0878 24.952C83.2576 26.3701 82.1572 27.5033 80.7822 28.3516C79.4072 29.1999 77.9414 29.6262 76.3827 29.6262C75.3817 29.6262 74.4521 29.4698 73.5938 29.1549C72.7355 28.84 72.0912 28.3302 71.6567 27.6254H71.5897V27.6233ZM71.3238 20.2263C71.3238 21.0104 71.5118 21.7559 71.8923 22.4692C72.2707 23.1804 72.7917 23.7545 73.4533 24.1894C74.1148 24.6242 74.852 24.8427 75.6649 24.8427C76.4778 24.8427 77.2128 24.6221 77.8679 24.1808C78.5251 23.7395 79.044 23.1654 79.4288 22.4606C79.8136 21.7559 80.0039 21.0104 80.0039 20.2263C80.0039 19.4659 79.8136 18.7354 79.4353 18.0349C79.057 17.3344 78.5359 16.7646 77.8744 16.3233C77.2128 15.882 76.4735 15.6614 75.6627 15.6614C74.8607 15.6614 74.1256 15.882 73.4576 16.3233C72.7895 16.7646 72.2664 17.3344 71.888 18.0349C71.5118 18.7354 71.3238 19.4659 71.3238 20.2263Z" fill="#2791D0"/>
<path d="M93.0471 7.35623C93.0471 7.87464 92.9238 8.34377 92.6795 8.76364C92.4352 9.1835 92.1001 9.51554 91.6786 9.76403C91.2548 10.0125 90.7879 10.1368 90.2755 10.1368C89.7631 10.1368 89.2983 10.0147 88.881 9.7726C88.4638 9.53053 88.1287 9.19421 87.8801 8.76364C87.6293 8.33306 87.5039 7.86393 87.5039 7.35623C87.5039 6.85925 87.6271 6.39868 87.8714 5.97453C88.1157 5.55038 88.453 5.21406 88.881 4.96557C89.3091 4.71708 89.7739 4.59283 90.2755 4.59283C90.7771 4.59283 91.2419 4.71708 91.6699 4.96557C92.098 5.21406 92.4352 5.55038 92.6795 5.97453C92.9238 6.39868 93.0471 6.85925 93.0471 7.35623ZM93.0298 11.6727V29.3263L87.7028 29.3435V11.6898L93.0298 11.6727Z" fill="#2791D0"/>
<path d="M97.4722 16.107H94.666L95.7837 11.6555H97.47V8.16381L102.797 6.09662V11.6555H105.837V16.107H102.799V22.2614C102.799 23.7609 103.746 24.5107 105.638 24.5107C106.239 24.5107 106.706 24.44 107.041 24.2965L105.506 29.5576C105.195 29.6026 104.922 29.624 104.687 29.624C103.106 29.624 101.781 29.3691 100.713 28.8636C99.6449 28.3559 98.8364 27.589 98.2916 26.565C97.7468 25.5389 97.4743 24.2429 97.4743 22.677V16.107H97.4722Z" fill="#2791D0"/>
<path d="M132.855 13.0137L130.083 16.8846C129.638 16.499 129.115 16.1969 128.514 15.9827C127.913 15.7685 127.29 15.6593 126.644 15.6593C125.431 15.6593 124.395 16.062 123.537 16.8674C122.679 17.6729 122.251 18.6819 122.251 19.8943C122.251 20.8326 122.432 21.6723 122.793 22.4178C123.154 23.1633 123.684 23.7524 124.38 24.1872C125.076 24.6221 125.863 24.8406 126.743 24.8406C128.058 24.8406 129.182 24.41 130.116 23.551L133.039 27.3555C132.604 27.8289 132.012 28.2402 131.26 28.5872C130.507 28.9343 129.718 29.1935 128.888 29.3648C128.058 29.5362 127.31 29.6219 126.642 29.6219C124.705 29.6219 122.992 29.202 121.507 28.3645C120.022 27.5269 118.885 26.4172 118.1 25.0398C117.315 23.6603 116.924 22.1714 116.924 20.5734C116.924 19.1403 117.164 17.8271 117.642 16.6361C118.119 15.445 118.792 14.4211 119.654 13.5664C120.517 12.7116 121.55 12.0497 122.752 11.5806C123.954 11.1114 125.252 10.8779 126.644 10.8779C127.768 10.8779 128.875 11.0622 129.967 11.4328C131.056 11.8033 132.021 12.3303 132.855 13.0137Z" fill="#2791D0"/>
<path d="M152.518 16.2741L141.198 23.5531C141.509 23.9837 141.929 24.305 142.458 24.5214C142.988 24.7356 143.524 24.8449 144.069 24.8449C145.759 24.8449 147.463 24.1551 149.177 22.7777L151.966 26.8799C151.164 27.454 150.338 27.9424 149.487 28.3452C148.635 28.7479 147.757 29.0628 146.856 29.2877C145.954 29.5127 144.992 29.6262 143.967 29.6262C142.642 29.6262 141.388 29.3584 140.201 28.8229C139.016 28.2873 137.998 27.5676 137.146 26.6636C136.295 25.7596 135.642 24.7613 135.183 23.6688C134.727 22.5763 134.498 21.5117 134.498 20.4748C134.498 18.7868 134.913 17.2016 135.741 15.7171C136.569 14.2347 137.698 13.0565 139.122 12.1847C140.547 11.3128 142.084 10.8779 143.732 10.8779C145.58 10.8779 147.303 11.3663 148.901 12.3432C150.501 13.32 151.707 14.6289 152.518 16.2741ZM139.628 20.3763L146.123 16.0427C145.688 15.5693 144.903 15.3315 143.768 15.3315C142.644 15.3315 141.673 15.7814 140.854 16.6789C140.037 17.5786 139.626 18.6069 139.626 19.7636V20.3763H139.628Z" fill="#2791D0"/>
<path fill-rule="evenodd" clip-rule="evenodd" d="M115.711 7.41407C115.711 5.76245 114.31 4.44073 112.576 4.44073C110.81 4.44073 109.441 5.82886 109.441 7.41407C109.441 9.03354 110.808 10.3874 112.576 10.3874C114.31 10.3874 115.711 9.09781 115.711 7.41407Z" fill="#58585A"/>
<path fill-rule="evenodd" clip-rule="evenodd" d="M112.753 39.2381C112.704 39.191 116.842 34.9538 116.842 34.9538C116.842 34.9538 115.919 28.8465 115.748 27.7368L113.953 17.011C113.981 16.8139 114.252 16.2248 114.554 15.64C114.768 15.2287 114.998 14.8174 115.173 14.5432C115.674 14.269 116.011 13.7549 116.011 13.1679V13.1422L116.037 13.0951L116.007 13.0608C115.951 12.2361 115.22 11.5784 114.338 11.5784H110.812C109.891 11.5784 109.139 12.2918 109.139 13.1658C109.139 13.757 109.485 14.2776 109.995 14.5496C110.47 15.188 111.134 16.4561 111.18 16.981C111.225 17.5229 110.704 19.8622 110.583 20.6291C110.207 23.0348 109.733 25.4233 109.353 27.8782C109.165 29.0907 108.319 34.9881 108.319 34.9881C108.321 34.9923 112.507 38.996 112.753 39.2381Z" fill="#58585A"/>
<path d="M118.536 37.2309C118.363 37.2309 118.229 37.1795 118.134 37.0788C118.039 36.9782 117.991 36.8325 117.991 36.6461C117.991 36.4748 118.041 36.3334 118.14 36.2241C118.24 36.1149 118.372 36.0613 118.534 36.0613C118.707 36.0613 118.841 36.1127 118.936 36.2134C119.031 36.3141 119.079 36.4598 119.079 36.6461C119.079 36.8175 119.029 36.9589 118.929 37.0681C118.83 37.1774 118.698 37.2309 118.536 37.2309Z" fill="#58585A"/>
<path d="M121.755 37.2223C121.373 37.2223 121.029 37.1281 120.728 36.9417C120.426 36.7554 120.188 36.5004 120.013 36.177C119.838 35.8556 119.749 35.4936 119.749 35.093C119.749 34.6924 119.838 34.3326 120.013 34.0091C120.188 33.6878 120.428 33.4328 120.728 33.2443C121.031 33.058 121.373 32.9637 121.755 32.9637C122.123 32.9637 122.458 33.0387 122.758 33.1865C123.059 33.3343 123.29 33.5357 123.448 33.7906L122.998 34.3368C122.914 34.2169 122.806 34.1076 122.676 34.0091C122.544 33.9106 122.406 33.8313 122.259 33.7756C122.112 33.7178 121.971 33.6899 121.833 33.6899C121.58 33.6899 121.357 33.752 121.161 33.8741C120.964 33.9962 120.808 34.1633 120.692 34.3775C120.575 34.5918 120.519 34.8295 120.519 35.0952C120.519 35.3608 120.579 35.5986 120.7 35.8085C120.821 36.0184 120.981 36.1877 121.18 36.3119C121.379 36.4362 121.6 36.4983 121.842 36.4983C121.984 36.4983 122.121 36.4747 122.255 36.4276C122.389 36.3805 122.518 36.3098 122.644 36.2177C122.769 36.1234 122.888 36.0099 122.998 35.8749L123.448 36.4212C123.279 36.6547 123.039 36.8475 122.728 36.9974C122.415 37.1474 122.09 37.2223 121.755 37.2223Z" fill="#58585A"/>
<path d="M126.066 37.2223C125.662 37.2223 125.301 37.1302 124.985 36.946C124.667 36.7618 124.416 36.509 124.233 36.1898C124.049 35.8706 123.958 35.5043 123.958 35.093C123.958 34.6817 124.049 34.3176 124.233 33.9984C124.416 33.6792 124.667 33.4264 124.985 33.2422C125.303 33.058 125.664 32.9659 126.066 32.9659C126.464 32.9659 126.823 33.058 127.14 33.2422C127.458 33.4264 127.709 33.6792 127.893 33.9984C128.076 34.3176 128.167 34.6839 128.167 35.093C128.167 35.5022 128.076 35.8685 127.893 36.1898C127.709 36.509 127.458 36.7618 127.14 36.946C126.823 37.1302 126.466 37.2223 126.066 37.2223ZM126.066 36.4897C126.312 36.4897 126.533 36.4276 126.727 36.3055C126.922 36.1834 127.073 36.0163 127.184 35.8064C127.294 35.5964 127.346 35.3587 127.341 35.093C127.346 34.8231 127.294 34.5832 127.184 34.3711C127.073 34.159 126.922 33.9962 126.727 33.8763C126.533 33.7563 126.312 33.6963 126.066 33.6963C125.819 33.6963 125.597 33.7585 125.4 33.8806C125.203 34.0027 125.05 34.1698 124.94 34.3797C124.829 34.5896 124.777 34.8274 124.782 35.093C124.777 35.3587 124.829 35.5964 124.94 35.8064C125.05 36.0163 125.203 36.1834 125.4 36.3055C125.597 36.4276 125.819 36.4897 126.066 36.4897Z" fill="#58585A"/>
<path d="M129.034 37.1452V33.0515H129.854V33.9256L129.704 34.0198C129.745 33.8849 129.812 33.7542 129.905 33.6299C129.996 33.5057 130.111 33.3943 130.245 33.2979C130.379 33.2015 130.524 33.1244 130.677 33.0687C130.833 33.0108 130.991 32.983 131.153 32.983C131.389 32.983 131.596 33.0216 131.776 33.1008C131.955 33.1779 132.1 33.2958 132.217 33.4521C132.331 33.6085 132.415 33.8035 132.469 34.0369L132.344 34.0048L132.398 33.872C132.457 33.752 132.537 33.6385 132.638 33.5335C132.74 33.4264 132.856 33.3322 132.988 33.2486C133.12 33.1651 133.259 33.1008 133.406 33.0537C133.553 33.0066 133.697 32.983 133.838 32.983C134.147 32.983 134.402 33.0451 134.605 33.1694C134.807 33.2936 134.96 33.4843 135.062 33.7392C135.163 33.9941 135.215 34.3111 135.215 34.6903V37.1474H134.396V34.7374C134.396 34.5039 134.365 34.3133 134.305 34.1655C134.244 34.0177 134.154 33.9063 134.033 33.8334C133.911 33.7606 133.758 33.7242 133.568 33.7242C133.421 33.7242 133.282 33.7499 133.155 33.7992C133.027 33.8484 132.915 33.917 132.82 34.0048C132.725 34.0926 132.651 34.1955 132.599 34.3133C132.547 34.4311 132.521 34.5596 132.521 34.6989V37.1474H131.702V34.7224C131.702 34.5082 131.67 34.3283 131.607 34.1805C131.544 34.0327 131.451 33.9191 131.332 33.842C131.211 33.7649 131.064 33.7242 130.891 33.7242C130.744 33.7242 130.608 33.7499 130.483 33.7992C130.357 33.8484 130.247 33.917 130.152 34.0027C130.057 34.0884 129.983 34.189 129.931 34.3069C129.879 34.4247 129.854 34.5489 129.854 34.6839V37.1474H129.034V37.1452Z" fill="#58585A"/>
<path fill-rule="evenodd" clip-rule="evenodd" d="M21.8684 17.101V16.5976V16.287H23.4358C23.6347 16.287 23.7968 16.1263 23.7968 15.9292C23.7968 15.7321 23.6347 15.5715 23.4358 15.5715H21.8684V14.961V14.7575V14.042V13.2536C21.8684 12.2126 21.0144 11.3664 19.9637 11.3664H19.1681V8.20027C19.6156 8.05032 19.9399 7.63045 19.9399 7.13776C19.9399 6.51867 19.4319 6.01526 18.8071 6.01526C18.1823 6.01526 17.6742 6.51867 17.6742 7.13776C17.6742 7.6326 17.9985 8.05246 18.446 8.20027V11.3664H17.6245V9.81333C17.6245 9.61625 17.4624 9.45558 17.2635 9.45558C17.0646 9.45558 16.9024 9.61625 16.9024 9.81333V11.3664H16.0809V11.3578H15.3588V11.3664H14.5373V9.81333C14.5373 9.61625 14.3751 9.45558 14.1762 9.45558C13.9773 9.45558 13.8152 9.61625 13.8152 9.81333V11.3664H12.9937V11.3643H12.2716V11.3664H11.476C11.316 11.3664 11.1539 11.3857 11.0004 11.4264C10.808 11.4756 10.6912 11.6706 10.741 11.8612C10.7907 12.0519 10.9874 12.1676 11.1798 12.1183C11.2749 12.0947 11.3744 12.0819 11.476 12.0819H19.9659C20.6188 12.0819 21.1484 12.6067 21.1484 13.2536V21.6659C21.1484 21.7645 21.1355 21.863 21.1117 21.9594C21.062 22.1501 21.1787 22.345 21.3711 22.3943C21.4014 22.4029 21.4317 22.405 21.4619 22.405C21.6219 22.405 21.7689 22.2979 21.8122 22.1372C21.8511 21.9851 21.8727 21.8245 21.8727 21.6659V20.8776H25.068C25.2193 21.3211 25.6431 21.6424 26.1425 21.6424C26.7673 21.6424 27.2753 21.139 27.2753 20.5199C27.2753 19.9008 26.7673 19.3974 26.1425 19.3974C25.6431 19.3974 25.2193 19.7187 25.068 20.1621H21.8727V19.3481H23.4401C23.639 19.3481 23.8011 19.1875 23.8011 18.9904C23.8011 18.7933 23.639 18.6326 23.4401 18.6326H21.8727V18.2363V17.8186V17.101H21.8684ZM18.8071 7.54263C18.5801 7.54263 18.3963 7.36054 18.3963 7.13561C18.3963 6.91069 18.5801 6.7286 18.8071 6.7286C19.0341 6.7286 19.2178 6.91069 19.2178 7.13561C19.2178 7.36054 19.0319 7.54263 18.8071 7.54263ZM26.1382 20.1107C26.3652 20.1107 26.5489 20.2928 26.5489 20.5177C26.5489 20.7427 26.3652 20.9248 26.1382 20.9248C25.9112 20.9248 25.7274 20.7427 25.7274 20.5177C25.7274 20.2928 25.9112 20.1107 26.1382 20.1107Z" fill="#2791D0"/>
<path fill-rule="evenodd" clip-rule="evenodd" d="M19.9632 23.551C20.1232 23.551 20.2853 23.5317 20.4388 23.491C20.6312 23.4418 20.748 23.2468 20.6982 23.0562C20.6485 22.8655 20.4518 22.7498 20.2594 22.7991C20.1642 22.8227 20.0648 22.8355 19.9632 22.8355H11.4755C10.8226 22.8355 10.2929 22.3107 10.2929 21.6638V13.2536C10.2929 13.1551 10.3059 13.0565 10.3297 12.9601C10.3794 12.7695 10.2626 12.5745 10.0702 12.5253C9.87781 12.476 9.68108 12.5917 9.63135 12.7823C9.59244 12.9366 9.57082 13.0951 9.57082 13.2536V14.0419H6.37334C6.222 13.5985 5.79827 13.2772 5.29886 13.2772C4.67407 13.2772 4.16602 13.7806 4.16602 14.3997C4.16602 15.0188 4.67407 15.5222 5.29886 15.5222C5.79827 15.5222 6.222 15.2008 6.37334 14.7574H9.56866V15.5714H8.00126C7.80237 15.5714 7.64022 15.7321 7.64022 15.9292C7.64022 16.1263 7.80237 16.2869 8.00126 16.2869H9.56866C9.56866 18.4762 9.56866 16.9381 9.56866 18.6305H8.00126C7.80237 18.6305 7.64022 18.7911 7.64022 18.9882C7.64022 19.1853 7.80237 19.3459 8.00126 19.3459H9.56866C9.56866 23.3647 9.56866 18.7847 9.56866 21.6638C9.56866 22.7049 10.4226 23.551 11.4733 23.551H12.2689V26.7171C11.8214 26.8671 11.4971 27.287 11.4971 27.7797C11.4971 28.3987 12.0051 28.9022 12.6299 28.9022C13.2547 28.9022 13.7628 28.3987 13.7628 27.7797C13.7628 27.2848 13.4385 26.865 12.991 26.7171V23.551H13.8125V25.1041C13.8125 25.3012 13.9747 25.4618 14.1735 25.4618C14.3724 25.4618 14.5346 25.3012 14.5346 25.1041V23.551C17.9742 23.551 12.1911 23.551 16.8997 23.551V25.1041C16.8997 25.3012 17.0619 25.4618 17.2608 25.4618C17.4597 25.4618 17.6218 25.3012 17.6218 25.1041V23.551H19.9632V23.551ZM5.30102 14.8088C5.07402 14.8088 4.89026 14.6267 4.89026 14.4018C4.89026 14.1769 5.07402 13.9948 5.30102 13.9948C5.52803 13.9948 5.71179 14.1769 5.71179 14.4018C5.71179 14.6246 5.52803 14.8088 5.30102 14.8088ZM13.0429 27.7818C13.0429 28.0067 12.8591 28.1888 12.6321 28.1888C12.4051 28.1888 12.2213 28.0067 12.2213 27.7818C12.2213 27.5569 12.4051 27.3748 12.6321 27.3748C12.8591 27.3748 13.0429 27.559 13.0429 27.7818Z" fill="#2791D0"/>
<path fill-rule="evenodd" clip-rule="evenodd" d="M19.5521 16.5033C19.5521 15.7385 18.9879 15.0894 18.2139 14.8795C18.2377 14.7852 18.2485 14.6888 18.2485 14.5924C18.2485 13.8684 17.5999 13.2793 16.8022 13.2793C16.3698 13.2793 15.9828 13.4528 15.7169 13.727C15.451 13.4528 15.064 13.2793 14.6316 13.2793C13.836 13.2793 13.1874 13.8684 13.1874 14.5924C13.1874 14.691 13.2004 14.7874 13.222 14.8795C12.4481 15.0894 11.8838 15.7385 11.8838 16.5033C11.8838 16.8781 12.0178 17.2295 12.2643 17.5208C12.0222 17.8293 11.8838 18.2063 11.8838 18.6047C11.8838 19.2131 12.2124 19.7808 12.7529 20.1342C12.7529 20.9633 13.4987 21.6402 14.4154 21.6402C14.9429 21.6402 15.412 21.4174 15.7169 21.0704C16.0217 21.4174 16.493 21.6402 17.0184 21.6402C17.9004 21.6402 18.6247 21.0147 18.6787 20.2285C19.2149 19.92 19.55 19.3802 19.55 18.7975C19.55 18.3691 19.3662 17.9599 19.0484 17.6515C19.3684 17.3408 19.5521 16.9317 19.5521 16.5033ZM18.2744 17.9664C18.6225 18.1484 18.83 18.4591 18.83 18.7975C18.83 19.0503 18.7111 19.2902 18.5122 19.4702C18.322 19.121 17.9869 18.8447 17.5632 18.7118C17.3729 18.6519 17.1697 18.7568 17.1113 18.9453C17.0508 19.1338 17.1567 19.3352 17.347 19.393C17.7145 19.5087 17.9631 19.8043 17.9631 20.1342C17.9631 20.5691 17.5415 20.9226 17.0227 20.9226C16.5038 20.9226 16.0822 20.5691 16.0822 20.1342V17.8421C16.0822 17.4073 16.5038 17.0538 17.0227 17.0538C17.2216 17.0538 17.3837 16.8931 17.3837 16.6961C17.3837 16.499 17.2216 16.3383 17.0227 16.3383C16.6724 16.3383 16.3482 16.4369 16.0822 16.6039V16.1477C16.0822 15.9506 15.9201 15.7899 15.7212 15.7899C15.5223 15.7899 15.3602 15.9506 15.3602 16.1477V18.1335C15.2391 18.0585 15.1051 17.9942 14.9624 17.9514C14.7721 17.8914 14.5689 17.9964 14.5105 18.1849C14.45 18.3734 14.5559 18.5747 14.7462 18.6326C15.1137 18.7483 15.3623 19.0439 15.3623 19.3738V20.1364C15.3623 20.5712 14.9407 20.9247 14.4219 20.9247C13.903 20.9247 13.4814 20.5712 13.4814 20.1364C13.4814 19.95 13.5614 19.7679 13.7063 19.6265C13.8468 19.4873 13.849 19.2602 13.7085 19.121C13.5679 18.9817 13.3388 18.9796 13.1982 19.1188C13.1118 19.2045 13.0383 19.2966 12.9756 19.3952C12.7486 19.181 12.6145 18.9003 12.6145 18.6069C12.6145 18.0778 13.0339 17.6108 13.6349 17.4737C13.8295 17.4287 13.9506 17.238 13.9052 17.0452C13.8598 16.8524 13.6674 16.7325 13.4728 16.7775C13.2307 16.8332 13.008 16.9253 12.8113 17.0452C12.6837 16.8867 12.6145 16.6982 12.6145 16.5054C12.6145 15.9677 13.1291 15.5286 13.7647 15.5243C13.7668 15.5243 13.7711 15.5243 13.7733 15.5243C13.8555 15.5243 13.9376 15.4964 14.0068 15.4386C14.1452 15.3229 14.1733 15.1258 14.0803 14.978C14.0781 14.9738 14.076 14.9695 14.0717 14.9652C14.0695 14.963 14.0673 14.9609 14.0673 14.9588C14.0608 14.9502 14.0565 14.9438 14.05 14.9352C13.9895 14.8645 13.9182 14.7488 13.9182 14.5924C13.9182 14.2626 14.2424 13.9948 14.6424 13.9948C15.0424 13.9948 15.3666 14.2626 15.3666 14.5924C15.3666 14.7895 15.5288 14.9502 15.7277 14.9502C15.9266 14.9502 16.0887 14.7895 16.0887 14.5924C16.0887 14.2626 16.413 13.9948 16.813 13.9948C17.2129 13.9948 17.5372 14.2626 17.5372 14.5924C17.5372 14.6803 17.5134 14.7553 17.4832 14.8174C17.2778 14.8367 17.0789 14.8859 16.8908 14.9652C16.707 15.0423 16.6206 15.2522 16.6984 15.4343C16.7762 15.6164 16.9881 15.7021 17.1719 15.625C17.3275 15.5607 17.4961 15.5264 17.6713 15.5243C17.6756 15.5243 17.6777 15.5243 17.6821 15.5243C17.6864 15.5243 17.6886 15.5243 17.6907 15.5243C18.3263 15.5286 18.8409 15.9656 18.8409 16.5054C18.8409 16.8439 18.6333 17.1545 18.2852 17.3366C18.1663 17.3987 18.0928 17.5208 18.0928 17.6536C18.082 17.7843 18.1555 17.9042 18.2744 17.9664Z" fill="white"/>
<path fill-rule="evenodd" clip-rule="evenodd" d="M27.6816 17.0967H21.8682V17.0945V17.81H27.727C27.9042 17.7886 28.0426 17.6365 28.0426 17.4544C28.0426 17.2573 27.8805 17.0967 27.6816 17.0967ZM21.8682 14.7574V14.7531H22.9578C23.3642 14.7531 23.7447 14.5968 24.0322 14.3118L26.406 11.9597C26.5617 12.0369 26.7325 12.0776 26.9098 12.0776C27.2124 12.0776 27.4978 11.9597 27.7097 11.7498C27.9237 11.5377 28.0426 11.255 28.0426 10.9551C28.0426 10.6552 27.9237 10.3724 27.7097 10.1625C27.4956 9.95039 27.2103 9.83472 26.9098 9.83472C26.6071 9.83472 26.3239 9.95039 26.1099 10.1625C25.8958 10.3745 25.7769 10.6573 25.7769 10.9551C25.7769 11.1307 25.818 11.3021 25.8958 11.4542L23.522 13.8063C23.3707 13.9562 23.1718 14.0377 22.9578 14.0377H22.9016V14.0419H21.8682V14.7574ZM26.6179 10.668C26.6957 10.5909 26.7995 10.5481 26.9076 10.5481C27.0179 10.5481 27.1195 10.5909 27.1973 10.668C27.2751 10.7451 27.3184 10.848 27.3184 10.9551C27.3184 11.0643 27.2751 11.165 27.1973 11.2421C27.1195 11.3192 27.0157 11.3621 26.9076 11.3621C26.7973 11.3621 26.6957 11.3192 26.6179 11.2421C26.5401 11.165 26.4968 11.0622 26.4968 10.9551C26.499 10.8458 26.5422 10.7451 26.6179 10.668Z" fill="#F78F3B"/>
<path fill-rule="evenodd" clip-rule="evenodd" d="M15.3582 5.60823V11.3685H15.3561H16.0781V5.56324C16.0565 5.38759 15.903 5.25049 15.7193 5.25049C15.5204 5.25049 15.3582 5.41115 15.3582 5.60823ZM12.9974 11.3685H12.9931V10.2889C12.9931 9.88614 12.8353 9.50912 12.5477 9.22421L10.1739 6.87211C10.2518 6.71787 10.2928 6.54864 10.2928 6.37298C10.2928 6.07308 10.1761 5.79031 9.96206 5.58038C9.74803 5.36831 9.46265 5.25049 9.15998 5.25049C8.85731 5.25049 8.57194 5.36831 8.36007 5.58038C8.14604 5.79246 8.0293 6.07522 8.0293 6.37298C8.0293 6.67289 8.1482 6.95351 8.36007 7.16559C8.5741 7.37766 8.85947 7.49548 9.15998 7.49548C9.33726 7.49548 9.51021 7.45478 9.66371 7.37766L12.0375 9.72976C12.1888 9.87972 12.271 10.0768 12.271 10.2889V10.3446H12.2753V11.3685H12.9974ZM8.86812 6.66218C8.79029 6.58506 8.74706 6.48224 8.74706 6.37513C8.74706 6.26588 8.79029 6.16519 8.86812 6.08808C8.94595 6.01096 9.04972 5.96811 9.15782 5.96811C9.26808 5.96811 9.36969 6.01096 9.44752 6.08808C9.52535 6.16519 9.56859 6.26802 9.56859 6.37513C9.56859 6.48438 9.52535 6.58506 9.44752 6.66218C9.36969 6.7393 9.26592 6.78214 9.15782 6.78214C9.04972 6.78 8.94595 6.73715 8.86812 6.66218Z" fill="#F78F3B"/>
<path fill-rule="evenodd" clip-rule="evenodd" d="M3.75753 17.8143H9.57093V17.8164V17.101H3.71213C3.53485 17.1224 3.39648 17.2745 3.39648 17.4566C3.39648 17.6536 3.55863 17.8143 3.75753 17.8143ZM9.57093 20.1535V20.1578H8.48133C8.07488 20.1578 7.69439 20.3142 7.40685 20.5991L5.03306 22.9512C4.8774 22.8741 4.70661 22.8334 4.52933 22.8334C4.22666 22.8334 3.94129 22.9491 3.72726 23.1611C3.51323 23.3732 3.39648 23.656 3.39648 23.9538C3.39648 24.2537 3.51323 24.5364 3.72726 24.7485C3.94129 24.9606 4.22666 25.0762 4.52933 25.0762C4.832 25.0762 5.11521 24.9606 5.32924 24.7485C5.54327 24.5364 5.66002 24.2537 5.66002 23.9538C5.66002 23.7781 5.61894 23.6067 5.54111 23.4546L7.9149 21.1025C8.06624 20.9547 8.26513 20.8712 8.47916 20.8712H8.53537V20.8669H9.56877L9.57093 20.1535ZM4.82119 24.2451C4.74336 24.3222 4.63959 24.365 4.53149 24.365C4.42124 24.365 4.31963 24.3222 4.2418 24.2451C4.16397 24.168 4.12073 24.0651 4.12073 23.958C4.12073 23.8488 4.16397 23.7481 4.2418 23.671C4.31963 23.5939 4.4234 23.551 4.53149 23.551C4.64175 23.551 4.74336 23.5939 4.82119 23.671C4.89902 23.7481 4.94226 23.8509 4.94226 23.958C4.9401 24.0651 4.89902 24.168 4.82119 24.2451Z" fill="#F78F3B"/>
<path fill-rule="evenodd" clip-rule="evenodd" d="M16.0803 29.3113V23.551H16.0824H15.3604V29.3563C15.382 29.532 15.5355 29.6691 15.7192 29.6691C15.9181 29.6691 16.0803 29.5084 16.0803 29.3113ZM18.4411 23.551H18.4454V24.6307C18.4454 25.0334 18.6032 25.4104 18.8908 25.6953L21.2646 28.0474C21.1867 28.2017 21.1457 28.3709 21.1457 28.5466C21.1457 28.8465 21.2624 29.1292 21.4764 29.3392C21.6905 29.5512 21.9758 29.6691 22.2785 29.6691C22.5812 29.6691 22.8665 29.5512 23.0784 29.3392C23.2924 29.1271 23.4092 28.8443 23.4092 28.5466C23.4092 28.2467 23.2903 27.966 23.0784 27.754C22.8644 27.5419 22.579 27.4241 22.2785 27.4241C22.1012 27.4241 21.9283 27.4648 21.7748 27.5419L19.401 25.1898C19.2496 25.0398 19.1675 24.8428 19.1675 24.6307V24.575H19.1632V23.551H18.4411ZM22.5682 28.2595C22.646 28.3366 22.6893 28.4395 22.6893 28.5466C22.6893 28.6558 22.646 28.7565 22.5682 28.8336C22.4904 28.9107 22.3866 28.9536 22.2785 28.9536C22.1682 28.9536 22.0666 28.9107 21.9888 28.8336C21.911 28.7565 21.8677 28.6537 21.8677 28.5466C21.8677 28.4373 21.911 28.3366 21.9888 28.2595C22.0666 28.1824 22.1704 28.1396 22.2785 28.1396C22.3888 28.1396 22.4904 28.1824 22.5682 28.2595Z" fill="#F78F3B"/>
<path d="M46.8984 49.5955L48.7123 44.9556H49.4473L51.2461 49.5955H50.4764L49.4063 46.7979C49.3933 46.7679 49.3674 46.6908 49.3284 46.5729C49.2895 46.453 49.2463 46.3202 49.1987 46.1745C49.149 46.0288 49.1058 45.896 49.0647 45.7739C49.0236 45.6518 48.9977 45.5747 48.9847 45.5383L49.1382 45.5318C49.1122 45.6068 49.0798 45.7011 49.0409 45.8167C49.002 45.9324 48.9631 46.0524 48.9198 46.1809C48.8766 46.3094 48.8355 46.4294 48.7966 46.5429C48.7577 46.6565 48.7231 46.7486 48.6972 46.8257L47.6335 49.5955H46.8984V49.5955ZM47.7005 48.443L47.9686 47.7533H50.0959L50.4029 48.443H47.7005Z" fill="#58585A"/>
<path d="M57.9023 49.5955V44.9556H58.5509L61.4133 48.7536L61.3052 48.8136C61.2879 48.7022 61.2706 48.5823 61.2577 48.4516C61.2447 48.3209 61.2317 48.1817 61.2209 48.0339C61.2101 47.8861 61.2015 47.7297 61.195 47.5626C61.1885 47.3976 61.182 47.2241 61.1777 47.042C61.1734 46.86 61.1712 46.6736 61.1712 46.4787V44.9534H61.8933V49.5934H61.2317L58.4147 45.9345L58.4882 45.8424C58.5099 46.1123 58.5293 46.3416 58.5444 46.5279C58.5596 46.7164 58.5725 46.875 58.5855 47.0056C58.5963 47.1363 58.605 47.2413 58.6093 47.3248C58.6136 47.4062 58.6179 47.4748 58.6201 47.5262C58.6223 47.5797 58.6244 47.6247 58.6244 47.6654V49.5934H57.9023V49.5955Z" fill="#58585A"/>
<path d="M66.6516 49.6619C66.2905 49.6619 65.9706 49.5848 65.6917 49.4327C65.4128 49.2806 65.1945 49.0707 65.0366 48.8072C64.8788 48.5416 64.7988 48.2374 64.7988 47.8925C64.7988 47.6183 64.8442 47.3698 64.9329 47.1427C65.0215 46.9178 65.1469 46.7229 65.3047 46.5558C65.4625 46.3908 65.6528 46.2623 65.8733 46.1723C66.0938 46.0824 66.3338 46.0374 66.5932 46.0374C66.8202 46.0374 67.0321 46.0802 67.2288 46.1659C67.4256 46.2516 67.5963 46.3694 67.7412 46.5215C67.886 46.6715 67.9985 46.8493 68.0763 47.0549C68.1541 47.2606 68.1909 47.4855 68.1865 47.7276L68.1801 48.0189H65.3112L65.1577 47.4748H67.5855L67.4861 47.5883V47.4298C67.4731 47.2841 67.4234 47.1535 67.3391 47.0378C67.2548 46.9221 67.1467 46.8321 67.017 46.7657C66.8872 46.6993 66.7467 46.6672 66.5954 46.6672C66.3554 46.6672 66.1522 46.7122 65.9857 46.8021C65.8214 46.8921 65.696 47.0249 65.6117 47.2006C65.5274 47.3762 65.4842 47.5905 65.4842 47.8475C65.4842 48.0896 65.536 48.3017 65.6376 48.4816C65.7393 48.6615 65.8841 48.7986 66.0722 48.895C66.2603 48.9914 66.4765 49.0407 66.7208 49.0407C66.8937 49.0407 67.0559 49.0128 67.205 48.955C67.3542 48.8972 67.5164 48.7944 67.6893 48.6423L68.0374 49.1264C67.9293 49.2335 67.7996 49.3256 67.6461 49.4049C67.4926 49.4841 67.3304 49.5484 67.1575 49.5934C66.9845 49.6384 66.8159 49.6619 66.6516 49.6619Z" fill="#58585A"/>
<path d="M71.7084 49.5955L70.5107 46.1145L71.2069 46.1081L72.063 48.7129L71.9095 48.7001L72.8391 46.665H73.2542L74.1903 48.7065L74.0087 48.7194L74.8713 46.1145H75.5675L74.3827 49.5955H73.9071L72.9299 47.3827L73.0834 47.4019L72.1733 49.5955H71.7084Z" fill="#58585A"/>
<path d="M83.2619 49.6619C83.1106 49.6619 82.9657 49.6426 82.8274 49.6019C82.689 49.5612 82.5614 49.5055 82.4425 49.4306C82.3236 49.3556 82.2177 49.2656 82.1247 49.1628C82.0318 49.06 81.9518 48.9443 81.8848 48.8222L82.3388 48.3509C82.4317 48.4837 82.5182 48.5887 82.596 48.6701C82.6739 48.7494 82.7495 48.8115 82.8209 48.8565C82.8922 48.9015 82.9636 48.9314 83.0349 48.9464C83.1063 48.9614 83.1819 48.97 83.2619 48.97C83.4219 48.97 83.5624 48.9336 83.6835 48.8608C83.8046 48.7879 83.8975 48.6872 83.9646 48.5587C84.0316 48.4302 84.064 48.2845 84.064 48.1217V45.6218H83.2079V44.9599H85.5082V45.6218H84.7861V48.186C84.7861 48.398 84.7493 48.593 84.6758 48.7729C84.6023 48.9529 84.4964 49.1071 84.3602 49.2399C84.224 49.3727 84.064 49.4756 83.8781 49.5505C83.6965 49.6255 83.4889 49.6619 83.2619 49.6619Z" fill="#58585A"/>
<path d="M89.203 49.6619C88.9522 49.6619 88.736 49.6041 88.5501 49.4905C88.3642 49.3749 88.2215 49.2142 88.122 49.0064C88.0226 48.7986 87.9707 48.5523 87.9707 48.2631V46.1145H88.6604V48.0767C88.6604 48.2802 88.6928 48.4559 88.7576 48.6037C88.8225 48.7515 88.9155 48.865 89.0387 48.9443C89.1619 49.0236 89.3089 49.0643 89.484 49.0643C89.6138 49.0643 89.7305 49.0428 89.8386 49.0021C89.9467 48.9593 90.0375 48.9015 90.1153 48.8265C90.1932 48.7515 90.2537 48.6615 90.2991 48.5544C90.3445 48.4495 90.3661 48.3338 90.3661 48.2095V46.1145H91.0558V49.5955H90.3661V48.8672L90.4872 48.7879C90.4331 48.9507 90.3423 49.1007 90.2169 49.2313C90.0894 49.3642 89.9402 49.4691 89.7651 49.5462C89.59 49.6234 89.4041 49.6619 89.203 49.6619Z" fill="#58585A"/>
<path d="M95.1697 49.6619C94.8757 49.6619 94.6098 49.6105 94.3742 49.5098C94.1385 49.4092 93.9418 49.2571 93.7861 49.06L94.2553 48.6615C94.3893 48.8158 94.5341 48.9272 94.6941 48.9957C94.8519 49.0643 95.0314 49.0985 95.2324 49.0985C95.3124 49.0985 95.3881 49.0878 95.4573 49.0686C95.5265 49.0493 95.587 49.0193 95.6367 48.9786C95.6864 48.9379 95.7275 48.8908 95.7535 48.8351C95.7794 48.7794 95.7945 48.7194 95.7945 48.653C95.7945 48.5373 95.7513 48.4452 95.667 48.3745C95.6216 48.3445 95.5524 48.3102 95.4573 48.2717C95.3622 48.2353 95.2368 48.1946 95.0854 48.156C94.826 48.0896 94.6141 48.0146 94.4498 47.9311C94.2855 47.8475 94.158 47.7533 94.0693 47.6462C94.0023 47.5626 93.9526 47.4705 93.9223 47.372C93.8921 47.2734 93.8748 47.1642 93.8748 47.0442C93.8748 46.8985 93.9072 46.7657 93.9721 46.6436C94.0369 46.5215 94.1256 46.4166 94.2401 46.3266C94.3547 46.2366 94.4866 46.1659 94.6422 46.1167C94.7957 46.0674 94.96 46.0438 95.133 46.0438C95.2973 46.0438 95.4616 46.0652 95.6237 46.1102C95.7859 46.1552 95.9372 46.2195 96.0756 46.303C96.2139 46.3866 96.3307 46.4872 96.4236 46.6008L96.028 47.0314C95.9437 46.9478 95.8507 46.8728 95.7513 46.8086C95.6518 46.7443 95.5502 46.695 95.4465 46.6586C95.3427 46.6222 95.2497 46.6051 95.1654 46.6051C95.0725 46.6051 94.986 46.6136 94.9103 46.6308C94.8347 46.6479 94.772 46.6758 94.7201 46.71C94.6682 46.7443 94.6293 46.7893 94.6033 46.8428C94.5774 46.8964 94.5623 46.9564 94.5623 47.0206C94.5666 47.0785 94.5817 47.132 94.6055 47.1835C94.6293 47.2349 94.6639 47.2777 94.7093 47.312C94.759 47.3484 94.8325 47.3848 94.9298 47.4255C95.0271 47.4662 95.1524 47.5026 95.3038 47.5391C95.5265 47.5969 95.7102 47.659 95.8551 47.7276C95.9999 47.7961 96.1145 47.8754 96.1988 47.9632C96.2874 48.0467 96.3501 48.1453 96.3869 48.2545C96.4236 48.3659 96.4409 48.488 96.4409 48.6251C96.4409 48.8244 96.3847 49.0022 96.2701 49.1585C96.1556 49.3149 96.0042 49.437 95.8118 49.527C95.6194 49.6191 95.4054 49.6619 95.1697 49.6619Z" fill="#58585A"/>
<path d="M98.8887 46.7786V46.1166H101.122V46.7786H98.8887ZM99.6172 49.5955V45.2276H100.307V49.5955H99.6172V49.5955Z" fill="#58585A"/>
<path d="M104.18 45.3476C104.033 45.3476 103.919 45.3112 103.839 45.2341C103.759 45.1591 103.718 45.052 103.718 44.9149C103.718 44.7864 103.759 44.6835 103.841 44.6043C103.923 44.525 104.036 44.4843 104.178 44.4843C104.325 44.4843 104.44 44.5229 104.52 44.5978C104.6 44.6728 104.641 44.7799 104.641 44.9149C104.641 45.0434 104.6 45.1462 104.518 45.2276C104.436 45.3069 104.323 45.3476 104.18 45.3476ZM103.845 49.5955V46.1145H104.535V49.5955H103.845Z" fill="#58585A"/>
<path d="M109.062 49.6619C108.736 49.6619 108.446 49.5827 108.189 49.4241C107.932 49.2656 107.731 49.0493 107.579 48.7751C107.43 48.5009 107.354 48.1945 107.354 47.8539C107.354 47.5133 107.43 47.207 107.579 46.9328C107.728 46.6586 107.932 46.4423 108.189 46.2837C108.446 46.1252 108.736 46.046 109.062 46.046C109.374 46.046 109.659 46.1081 109.916 46.2345C110.174 46.3609 110.368 46.5322 110.502 46.7486L110.122 47.2134C110.05 47.1128 109.96 47.0185 109.847 46.935C109.735 46.8514 109.618 46.785 109.493 46.7357C109.367 46.6865 109.248 46.6629 109.132 46.6629C108.918 46.6629 108.727 46.7143 108.559 46.8193C108.392 46.9242 108.258 47.0656 108.161 47.2477C108.064 47.4298 108.014 47.6312 108.014 47.8582C108.014 48.0853 108.066 48.2867 108.167 48.4645C108.269 48.6444 108.405 48.7858 108.576 48.8929C108.747 49 108.933 49.0514 109.138 49.0514C109.259 49.0514 109.376 49.0321 109.488 48.9914C109.601 48.9507 109.713 48.8929 109.819 48.8136C109.927 48.7344 110.027 48.6358 110.12 48.5223L110.5 48.9871C110.357 49.1864 110.154 49.3492 109.888 49.4777C109.622 49.6062 109.35 49.6619 109.062 49.6619Z" fill="#58585A"/>
<path d="M114.77 49.6619C114.409 49.6619 114.089 49.5848 113.81 49.4327C113.531 49.2806 113.313 49.0707 113.155 48.8072C112.997 48.5416 112.917 48.2374 112.917 47.8925C112.917 47.6183 112.962 47.3698 113.051 47.1427C113.14 46.9178 113.265 46.7229 113.423 46.5558C113.581 46.3908 113.771 46.2623 113.991 46.1723C114.212 46.0824 114.452 46.0374 114.711 46.0374C114.938 46.0374 115.15 46.0802 115.347 46.1659C115.544 46.2516 115.715 46.3694 115.859 46.5215C116.004 46.6715 116.117 46.8493 116.194 47.0549C116.272 47.2606 116.309 47.4855 116.305 47.7276L116.298 48.0189H113.429L113.276 47.4748H115.704L115.604 47.5883V47.4298C115.591 47.2841 115.542 47.1535 115.457 47.0378C115.373 46.9221 115.265 46.8321 115.135 46.7657C115.005 46.6993 114.865 46.6672 114.714 46.6672C114.474 46.6672 114.27 46.7122 114.104 46.8021C113.94 46.8921 113.814 47.0249 113.73 47.2006C113.646 47.3762 113.602 47.5905 113.602 47.8475C113.602 48.0896 113.654 48.3017 113.756 48.4816C113.857 48.6615 114.002 48.7986 114.19 48.895C114.378 48.9914 114.595 49.0407 114.839 49.0407C115.012 49.0407 115.174 49.0128 115.323 48.955C115.472 48.8972 115.635 48.7944 115.807 48.6423L116.156 49.1264C116.047 49.2335 115.918 49.3256 115.764 49.4049C115.611 49.4841 115.449 49.5484 115.276 49.5934C115.103 49.6384 114.934 49.6619 114.77 49.6619Z" fill="#58585A"/>
<path d="M125.017 49.6619C124.687 49.6619 124.384 49.602 124.105 49.482C123.826 49.362 123.584 49.1971 123.377 48.9807C123.169 48.7665 123.009 48.5137 122.894 48.2245C122.78 47.9354 122.724 47.6183 122.724 47.2734C122.724 46.9285 122.78 46.6115 122.894 46.3223C123.009 46.0331 123.169 45.7803 123.377 45.5661C123.584 45.3519 123.826 45.1848 124.105 45.0649C124.384 44.9449 124.689 44.8871 125.017 44.8871C125.348 44.8871 125.651 44.947 125.93 45.0649C126.209 45.1848 126.451 45.3519 126.658 45.5683C126.866 45.7846 127.026 46.0374 127.14 46.3266C127.255 46.6158 127.311 46.9307 127.311 47.2713C127.311 47.6119 127.255 47.9268 127.14 48.216C127.026 48.5052 126.866 48.7579 126.658 48.9743C126.451 49.1907 126.209 49.3578 125.93 49.4777C125.653 49.602 125.348 49.6619 125.017 49.6619ZM125.017 48.9657C125.244 48.9657 125.454 48.9229 125.642 48.8393C125.83 48.7558 125.995 48.638 126.133 48.4837C126.271 48.3295 126.379 48.1517 126.457 47.9461C126.535 47.7404 126.574 47.5155 126.574 47.2734C126.574 47.0314 126.535 46.8064 126.457 46.6008C126.379 46.3951 126.271 46.2173 126.133 46.0631C125.995 45.9089 125.83 45.7932 125.642 45.7075C125.454 45.6218 125.244 45.5811 125.017 45.5811C124.79 45.5811 124.581 45.624 124.393 45.7075C124.205 45.791 124.038 45.9089 123.898 46.0588C123.757 46.2088 123.649 46.3866 123.573 46.5922C123.498 46.7979 123.459 47.0249 123.459 47.2713C123.459 47.5133 123.495 47.7404 123.573 47.9482C123.649 48.156 123.757 48.3359 123.898 48.4859C124.038 48.6358 124.202 48.7537 124.393 48.8372C124.583 48.9207 124.79 48.9657 125.017 48.9657Z" fill="#58585A"/>
<path d="M130.096 49.5955V46.1145H130.792V47.2091L130.725 46.9435C130.775 46.7764 130.857 46.6222 130.976 46.4872C131.095 46.3501 131.231 46.2409 131.384 46.1616C131.538 46.0824 131.698 46.0417 131.862 46.0417C131.938 46.0417 132.011 46.0481 132.08 46.0609C132.15 46.0738 132.204 46.0888 132.245 46.1081L132.065 46.8493C132.011 46.8278 131.953 46.8086 131.888 46.7936C131.823 46.7786 131.76 46.77 131.698 46.77C131.577 46.77 131.462 46.7936 131.354 46.8407C131.246 46.8878 131.149 46.9521 131.066 47.0335C130.984 47.1149 130.917 47.2113 130.87 47.3184C130.82 47.4276 130.796 47.5455 130.796 47.674V49.5955H130.096V49.5955Z" fill="#58585A"/>
<path d="M136.089 49.6619C135.767 49.6619 135.481 49.5826 135.229 49.4263C134.976 49.2699 134.777 49.0557 134.63 48.7836C134.483 48.5116 134.409 48.201 134.409 47.8518C134.409 47.5026 134.481 47.192 134.628 46.9199C134.772 46.6479 134.969 46.4337 135.22 46.2773C135.471 46.1209 135.752 46.0417 136.07 46.0417C136.243 46.0417 136.411 46.0695 136.575 46.1252C136.74 46.1809 136.885 46.2559 137.014 46.3501C137.144 46.4444 137.246 46.5493 137.319 46.6607C137.393 46.7743 137.429 46.8878 137.429 47.0013L137.228 47.0142V44.6878H137.918V49.5934H137.228V48.7643H137.362C137.362 48.8715 137.326 48.9764 137.254 49.0792C137.183 49.1842 137.088 49.2785 136.971 49.3684C136.852 49.4563 136.716 49.527 136.562 49.5805C136.407 49.6362 136.249 49.6619 136.089 49.6619ZM136.182 49.0728C136.392 49.0728 136.578 49.0193 136.738 48.9143C136.898 48.8093 137.025 48.6637 137.116 48.4794C137.207 48.2952 137.252 48.0874 137.252 47.8539C137.252 47.6204 137.207 47.4105 137.116 47.2284C137.025 47.0442 136.898 46.9007 136.738 46.7936C136.578 46.6864 136.392 46.635 136.182 46.635C135.972 46.635 135.786 46.6886 135.626 46.7936C135.466 46.8985 135.339 47.0442 135.248 47.2284C135.157 47.4126 135.112 47.6204 135.112 47.8539C135.112 48.0874 135.157 48.2974 135.248 48.4794C135.339 48.6637 135.466 48.8072 135.626 48.9143C135.788 49.0193 135.972 49.0728 136.182 49.0728Z" fill="#58585A"/>
<path d="M142.484 49.6619C142.123 49.6619 141.803 49.5848 141.524 49.4327C141.245 49.2806 141.026 49.0707 140.869 48.8072C140.711 48.5416 140.631 48.2374 140.631 47.8925C140.631 47.6183 140.676 47.3698 140.765 47.1427C140.854 46.9178 140.979 46.7229 141.137 46.5558C141.295 46.3908 141.485 46.2623 141.705 46.1723C141.926 46.0824 142.166 46.0374 142.425 46.0374C142.652 46.0374 142.864 46.0802 143.061 46.1659C143.258 46.2516 143.428 46.3694 143.573 46.5215C143.718 46.6715 143.831 46.8493 143.908 47.0549C143.986 47.2606 144.023 47.4855 144.019 47.7276L144.012 48.0189H141.143L140.99 47.4748H143.418L143.318 47.5883V47.4298C143.305 47.2841 143.255 47.1535 143.171 47.0378C143.087 46.9221 142.979 46.8321 142.849 46.7657C142.719 46.6993 142.579 46.6672 142.427 46.6672C142.187 46.6672 141.984 46.7122 141.818 46.8021C141.653 46.8921 141.528 47.0249 141.444 47.2006C141.359 47.3762 141.316 47.5905 141.316 47.8475C141.316 48.0896 141.368 48.3017 141.47 48.4816C141.571 48.6615 141.716 48.7986 141.904 48.895C142.092 48.9914 142.309 49.0407 142.553 49.0407C142.726 49.0407 142.888 49.0128 143.037 48.955C143.186 48.8972 143.348 48.7944 143.521 48.6423L143.869 49.1264C143.761 49.2335 143.632 49.3256 143.478 49.4049C143.325 49.4841 143.162 49.5484 142.99 49.5934C142.817 49.6384 142.648 49.6619 142.484 49.6619Z" fill="#58585A"/>
<path d="M146.745 49.5955V46.1145H147.441V47.2091L147.374 46.9435C147.424 46.7764 147.506 46.6222 147.625 46.4872C147.744 46.3501 147.88 46.2409 148.034 46.1616C148.187 46.0824 148.347 46.0417 148.511 46.0417C148.587 46.0417 148.661 46.0481 148.73 46.0609C148.799 46.0738 148.853 46.0888 148.894 46.1081L148.715 46.8493C148.661 46.8278 148.602 46.8086 148.537 46.7936C148.473 46.7786 148.41 46.77 148.347 46.77C148.226 46.77 148.111 46.7936 148.003 46.8407C147.895 46.8878 147.798 46.9521 147.716 47.0335C147.634 47.1149 147.567 47.2113 147.519 47.3184C147.469 47.4276 147.446 47.5455 147.446 47.674V49.5955H146.745V49.5955Z" fill="#58585A"/>
<path d="M151.702 49.6684C151.555 49.6684 151.44 49.6255 151.36 49.5398C151.28 49.4541 151.239 49.332 151.239 49.1714C151.239 49.0257 151.283 48.9058 151.367 48.8136C151.451 48.7215 151.564 48.6744 151.702 48.6744C151.849 48.6744 151.964 48.7172 152.043 48.8029C152.123 48.8886 152.165 49.0107 152.165 49.1714C152.165 49.317 152.121 49.437 152.037 49.5291C151.953 49.6234 151.84 49.6684 151.702 49.6684ZM151.522 47.9996C151.492 47.7211 151.464 47.4319 151.438 47.1342C151.414 46.8364 151.395 46.5408 151.382 46.2495C151.369 45.9581 151.362 45.6818 151.362 45.4204V44.9556H152.085V45.4204C152.085 45.6946 152.078 45.9817 152.065 46.2816C152.052 46.5815 152.033 46.8793 152.009 47.1727C151.985 47.4662 151.957 47.7426 151.925 47.9975H151.522V47.9996Z" fill="#58585A"/>
</svg>
