<?xml version="1.0" encoding="UTF-8" standalone="no"?>
<!DOCTYPE svg PUBLIC "-//W3C//DTD SVG 1.1//EN" "http://www.w3.org/Graphics/SVG/1.1/DTD/svg11.dtd">
<svg width="100%" height="100%" viewBox="0 0 156 44" version="1.1" xmlns="http://www.w3.org/2000/svg" xmlns:xlink="http://www.w3.org/1999/xlink" xml:space="preserve" style="fill-rule:evenodd;clip-rule:evenodd;stroke-linejoin:round;stroke-miterlimit:1.41421;">
    <g>
        <path d="M11.482,11.368L19.937,11.368C20.979,11.368 21.833,12.215 21.833,13.247L21.833,21.679C21.833,22.711 20.979,23.558 19.937,23.558L11.482,23.558C10.44,23.558 9.586,22.711 9.586,21.679L9.586,13.247C9.586,12.215 10.44,11.368 11.482,11.368Z" style="fill:rgb(39,145,208);"/>
        <path d="M38.731,19.665L38.731,5.602L44.542,5.619L44.542,20.841C44.542,22.154 44.367,23.35 44.017,24.432C43.666,25.513 43.141,26.439 42.439,27.212C41.738,27.983 40.867,28.579 39.825,28.999C38.783,29.418 37.585,29.628 36.227,29.628C35.248,29.628 34.53,29.545 34.074,29.38L32.671,23.555C33.428,23.853 34.273,24.003 35.209,24.003C36.145,24.003 36.867,23.84 37.38,23.515C37.892,23.189 38.244,22.718 38.439,22.101C38.634,21.48 38.731,20.668 38.731,19.665Z" style="fill:rgb(39,145,208);fill-rule:nonzero;"/>
        <path d="M58.368,21.799L58.368,11.69L63.71,11.161L63.71,28.814L58.785,29.343L58.785,26.681L58.718,26.681C58.251,27.739 57.591,28.495 56.74,28.947C55.888,29.399 55.017,29.626 54.126,29.626C49.841,29.626 47.696,27.139 47.696,22.165L47.696,11.69L53.038,11.161L53.038,21.799C53.038,22.78 53.274,23.534 53.748,24.057C54.221,24.581 54.87,24.843 55.693,24.843C56.539,24.843 57.196,24.581 57.663,24.057C58.132,23.534 58.368,22.782 58.368,21.799Z" style="fill:rgb(39,145,208);fill-rule:nonzero;"/>
        <path d="M71.59,27.623L71.59,35.367L66.263,35.382L66.263,11.426L71.255,11.409L71.255,14.106L71.322,14.106C71.789,13.136 72.513,12.356 73.492,11.765C74.472,11.176 75.524,10.88 76.649,10.88C78.318,10.88 79.809,11.332 81.124,12.236C82.438,13.14 83.467,14.323 84.213,15.786C84.959,17.247 85.331,18.8 85.331,20.443C85.331,22.03 84.916,23.534 84.088,24.952C83.258,26.37 82.157,27.503 80.782,28.352C79.407,29.2 77.941,29.626 76.383,29.626C75.382,29.626 74.452,29.47 73.594,29.155C72.736,28.84 72.091,28.33 71.657,27.625L71.59,27.625L71.59,27.623ZM71.324,20.226C71.324,21.01 71.512,21.756 71.892,22.469C72.271,23.18 72.792,23.755 73.453,24.189C74.115,24.624 74.852,24.843 75.665,24.843C76.478,24.843 77.213,24.622 77.868,24.181C78.525,23.74 79.044,23.165 79.429,22.461C79.814,21.756 80.004,21.01 80.004,20.226C80.004,19.466 79.814,18.735 79.435,18.035C79.057,17.334 78.536,16.765 77.874,16.323C77.213,15.882 76.474,15.661 75.663,15.661C74.861,15.661 74.126,15.882 73.458,16.323C72.79,16.765 72.266,17.334 71.888,18.035C71.512,18.735 71.324,19.466 71.324,20.226Z" style="fill:rgb(39,145,208);fill-rule:nonzero;"/>
        <path d="M93.047,7.356C93.047,7.875 92.924,8.344 92.68,8.764C92.435,9.184 92.1,9.516 91.679,9.764C91.255,10.012 90.788,10.137 90.275,10.137C89.763,10.137 89.298,10.015 88.881,9.773C88.464,9.531 88.129,9.194 87.88,8.764C87.629,8.333 87.504,7.864 87.504,7.356C87.504,6.859 87.627,6.399 87.871,5.975C88.116,5.55 88.453,5.214 88.881,4.966C89.309,4.717 89.774,4.593 90.275,4.593C90.777,4.593 91.242,4.717 91.67,4.966C92.098,5.214 92.435,5.55 92.68,5.975C92.924,6.399 93.047,6.859 93.047,7.356ZM93.03,11.673L93.03,29.326L87.703,29.344L87.703,11.69L93.03,11.673Z" style="fill:rgb(39,145,208);fill-rule:nonzero;"/>
        <path d="M97.472,16.107L94.666,16.107L95.784,11.656L97.47,11.656L97.47,8.164L102.797,6.097L102.797,11.656L105.837,11.656L105.837,16.107L102.799,16.107L102.799,22.261C102.799,23.761 103.746,24.511 105.638,24.511C106.239,24.511 106.706,24.44 107.041,24.297L105.506,29.558C105.195,29.603 104.922,29.624 104.687,29.624C103.106,29.624 101.781,29.369 100.713,28.864C99.645,28.356 98.836,27.589 98.292,26.565C97.747,25.539 97.474,24.243 97.474,22.677L97.474,16.107L97.472,16.107Z" style="fill:rgb(39,145,208);fill-rule:nonzero;"/>
        <path d="M132.855,13.014L130.083,16.885C129.638,16.499 129.115,16.197 128.514,15.983C127.913,15.769 127.29,15.659 126.644,15.659C125.431,15.659 124.395,16.062 123.537,16.867C122.679,17.673 122.251,18.682 122.251,19.894C122.251,20.833 122.432,21.672 122.793,22.418C123.154,23.163 123.684,23.752 124.38,24.187C125.076,24.622 125.863,24.841 126.743,24.841C128.058,24.841 129.182,24.41 130.116,23.551L133.039,27.356C132.604,27.829 132.012,28.24 131.26,28.587C130.507,28.934 129.718,29.194 128.888,29.365C128.058,29.536 127.31,29.622 126.642,29.622C124.705,29.622 122.992,29.202 121.507,28.365C120.022,27.527 118.885,26.417 118.1,25.04C117.315,23.66 116.924,22.171 116.924,20.573C116.924,19.14 117.164,17.827 117.642,16.636C118.119,15.445 118.792,14.421 119.654,13.566C120.517,12.712 121.55,12.05 122.752,11.581C123.954,11.111 125.252,10.878 126.644,10.878C127.768,10.878 128.875,11.062 129.967,11.433C131.056,11.803 132.021,12.33 132.855,13.014Z" style="fill:rgb(39,145,208);fill-rule:nonzero;"/>
        <path d="M152.518,16.274L141.198,23.553C141.509,23.984 141.929,24.305 142.458,24.521C142.988,24.736 143.524,24.845 144.069,24.845C145.759,24.845 147.463,24.155 149.177,22.778L151.966,26.88C151.164,27.454 150.338,27.942 149.487,28.345C148.635,28.748 147.757,29.063 146.856,29.288C145.954,29.513 144.992,29.626 143.967,29.626C142.642,29.626 141.388,29.358 140.201,28.823C139.016,28.287 137.998,27.568 137.146,26.664C136.295,25.76 135.642,24.761 135.183,23.669C134.727,22.576 134.498,21.512 134.498,20.475C134.498,18.787 134.913,17.202 135.741,15.717C136.569,14.235 137.698,13.057 139.122,12.185C140.547,11.313 142.084,10.878 143.732,10.878C145.58,10.878 147.303,11.366 148.901,12.343C150.501,13.32 151.707,14.629 152.518,16.274ZM139.628,20.376L146.123,16.043C145.688,15.569 144.903,15.332 143.768,15.332C142.644,15.332 141.673,15.781 140.854,16.679C140.037,17.579 139.626,18.607 139.626,19.764L139.626,20.376L139.628,20.376Z" style="fill:rgb(39,145,208);fill-rule:nonzero;"/>
        <path d="M115.711,7.414C115.711,5.762 114.31,4.441 112.576,4.441C110.81,4.441 109.441,5.829 109.441,7.414C109.441,9.034 110.808,10.387 112.576,10.387C114.31,10.387 115.711,9.098 115.711,7.414Z" style="fill:rgb(88,88,90);"/>
        <path d="M112.753,39.238C112.704,39.191 116.842,34.954 116.842,34.954C116.842,34.954 115.919,28.847 115.748,27.737L113.953,17.011C113.981,16.814 114.252,16.225 114.554,15.64C114.768,15.229 114.998,14.817 115.173,14.543C115.674,14.269 116.011,13.755 116.011,13.168L116.011,13.142L116.037,13.095L116.007,13.061C115.951,12.236 115.22,11.578 114.338,11.578L110.812,11.578C109.891,11.578 109.139,12.292 109.139,13.166C109.139,13.757 109.485,14.278 109.995,14.55C110.47,15.188 111.134,16.456 111.18,16.981C111.225,17.523 110.704,19.862 110.583,20.629C110.207,23.035 109.733,25.423 109.353,27.878C109.165,29.091 108.319,34.988 108.319,34.988C108.321,34.992 112.507,38.996 112.753,39.238Z" style="fill:rgb(88,88,90);"/>
        <path d="M118.536,37.231C118.363,37.231 118.229,37.18 118.134,37.079C118.039,36.978 117.991,36.833 117.991,36.646C117.991,36.475 118.041,36.333 118.14,36.224C118.24,36.115 118.372,36.061 118.534,36.061C118.707,36.061 118.841,36.113 118.936,36.213C119.031,36.314 119.079,36.46 119.079,36.646C119.079,36.818 119.029,36.959 118.929,37.068C118.83,37.177 118.698,37.231 118.536,37.231Z" style="fill:rgb(88,88,90);fill-rule:nonzero;"/>
        <path d="M121.755,37.222C121.373,37.222 121.029,37.128 120.728,36.942C120.426,36.755 120.188,36.5 120.013,36.177C119.838,35.856 119.749,35.494 119.749,35.093C119.749,34.692 119.838,34.333 120.013,34.009C120.188,33.688 120.428,33.433 120.728,33.244C121.031,33.058 121.373,32.964 121.755,32.964C122.123,32.964 122.458,33.039 122.758,33.187C123.059,33.334 123.29,33.536 123.448,33.791L122.998,34.337C122.914,34.217 122.806,34.108 122.676,34.009C122.544,33.911 122.406,33.831 122.259,33.776C122.112,33.718 121.971,33.69 121.833,33.69C121.58,33.69 121.357,33.752 121.161,33.874C120.964,33.996 120.808,34.163 120.692,34.378C120.575,34.592 120.519,34.83 120.519,35.095C120.519,35.361 120.579,35.599 120.7,35.809C120.821,36.018 120.981,36.188 121.18,36.312C121.379,36.436 121.6,36.498 121.842,36.498C121.984,36.498 122.121,36.475 122.255,36.428C122.389,36.381 122.518,36.31 122.644,36.218C122.769,36.123 122.888,36.01 122.998,35.875L123.448,36.421C123.279,36.655 123.039,36.847 122.728,36.997C122.415,37.147 122.09,37.222 121.755,37.222Z" style="fill:rgb(88,88,90);fill-rule:nonzero;"/>
        <path d="M126.066,37.222C125.662,37.222 125.301,37.13 124.985,36.946C124.667,36.762 124.416,36.509 124.233,36.19C124.049,35.871 123.958,35.504 123.958,35.093C123.958,34.682 124.049,34.318 124.233,33.998C124.416,33.679 124.667,33.426 124.985,33.242C125.303,33.058 125.664,32.966 126.066,32.966C126.464,32.966 126.823,33.058 127.14,33.242C127.458,33.426 127.709,33.679 127.893,33.998C128.076,34.318 128.167,34.684 128.167,35.093C128.167,35.502 128.076,35.869 127.893,36.19C127.709,36.509 127.458,36.762 127.14,36.946C126.823,37.13 126.466,37.222 126.066,37.222ZM126.066,36.49C126.312,36.49 126.533,36.428 126.727,36.306C126.922,36.183 127.073,36.016 127.184,35.806C127.294,35.596 127.346,35.359 127.341,35.093C127.346,34.823 127.294,34.583 127.184,34.371C127.073,34.159 126.922,33.996 126.727,33.876C126.533,33.756 126.312,33.696 126.066,33.696C125.819,33.696 125.597,33.759 125.4,33.881C125.203,34.003 125.05,34.17 124.94,34.38C124.829,34.59 124.777,34.827 124.782,35.093C124.777,35.359 124.829,35.596 124.94,35.806C125.05,36.016 125.203,36.183 125.4,36.306C125.597,36.428 125.819,36.49 126.066,36.49Z" style="fill:rgb(88,88,90);fill-rule:nonzero;"/>
        <path d="M129.034,37.145L129.034,33.052L129.854,33.052L129.854,33.926L129.704,34.02C129.745,33.885 129.812,33.754 129.905,33.63C129.996,33.506 130.111,33.394 130.245,33.298C130.379,33.202 130.524,33.124 130.677,33.069C130.833,33.011 130.991,32.983 131.153,32.983C131.389,32.983 131.596,33.022 131.776,33.101C131.955,33.178 132.1,33.296 132.217,33.452C132.331,33.609 132.415,33.804 132.469,34.037L132.344,34.005L132.398,33.872C132.457,33.752 132.537,33.639 132.638,33.533C132.74,33.426 132.856,33.332 132.988,33.249C133.12,33.165 133.259,33.101 133.406,33.054C133.553,33.007 133.697,32.983 133.838,32.983C134.147,32.983 134.402,33.045 134.605,33.169C134.807,33.294 134.96,33.484 135.062,33.739C135.163,33.994 135.215,34.311 135.215,34.69L135.215,37.147L134.396,37.147L134.396,34.737C134.396,34.504 134.365,34.313 134.305,34.166C134.244,34.018 134.154,33.906 134.033,33.833C133.911,33.761 133.758,33.724 133.568,33.724C133.421,33.724 133.282,33.75 133.155,33.799C133.027,33.848 132.915,33.917 132.82,34.005C132.725,34.093 132.651,34.196 132.599,34.313C132.547,34.431 132.521,34.56 132.521,34.699L132.521,37.147L131.702,37.147L131.702,34.722C131.702,34.508 131.67,34.328 131.607,34.181C131.544,34.033 131.451,33.919 131.332,33.842C131.211,33.765 131.064,33.724 130.891,33.724C130.744,33.724 130.608,33.75 130.483,33.799C130.357,33.848 130.247,33.917 130.152,34.003C130.057,34.088 129.983,34.189 129.931,34.307C129.879,34.425 129.854,34.549 129.854,34.684L129.854,37.147L129.034,37.147L129.034,37.145Z" style="fill:rgb(88,88,90);fill-rule:nonzero;"/>
        <path d="M21.868,17.101L21.868,16.598L21.868,16.287L23.436,16.287C23.635,16.287 23.797,16.126 23.797,15.929C23.797,15.732 23.635,15.572 23.436,15.572L21.868,15.572L21.868,14.961L21.868,14.758L21.868,14.042L21.868,13.254C21.868,12.213 21.014,11.366 19.964,11.366L19.168,11.366L19.168,8.2C19.616,8.05 19.94,7.63 19.94,7.138C19.94,6.519 19.432,6.015 18.807,6.015C18.182,6.015 17.674,6.519 17.674,7.138C17.674,7.633 17.999,8.052 18.446,8.2L18.446,11.366L17.625,11.366L17.625,9.813C17.625,9.616 17.462,9.456 17.264,9.456C17.065,9.456 16.902,9.616 16.902,9.813L16.902,11.366L16.081,11.366L16.081,11.358L15.359,11.358L15.359,11.366L14.537,11.366L14.537,9.813C14.537,9.616 14.375,9.456 14.176,9.456C13.977,9.456 13.815,9.616 13.815,9.813L13.815,11.366L12.994,11.366L12.994,11.364L12.272,11.364L12.272,11.366L11.476,11.366C11.316,11.366 11.154,11.386 11,11.426C10.808,11.476 10.691,11.671 10.741,11.861C10.791,12.052 10.987,12.168 11.18,12.118C11.275,12.095 11.374,12.082 11.476,12.082L19.966,12.082C20.619,12.082 21.148,12.607 21.148,13.254L21.148,21.666C21.148,21.765 21.136,21.863 21.112,21.959C21.062,22.15 21.179,22.345 21.371,22.394C21.401,22.403 21.432,22.405 21.462,22.405C21.622,22.405 21.769,22.298 21.812,22.137C21.851,21.985 21.873,21.825 21.873,21.666L21.873,20.878L25.068,20.878C25.219,21.321 25.643,21.642 26.142,21.642C26.767,21.642 27.275,21.139 27.275,20.52C27.275,19.901 26.767,19.397 26.142,19.397C25.643,19.397 25.219,19.719 25.068,20.162L21.873,20.162L21.873,19.348L23.44,19.348C23.639,19.348 23.801,19.188 23.801,18.99C23.801,18.793 23.639,18.633 23.44,18.633L21.873,18.633L21.873,18.236L21.873,17.819L21.873,17.101L21.868,17.101ZM18.807,7.543C18.58,7.543 18.396,7.361 18.396,7.136C18.396,6.911 18.58,6.729 18.807,6.729C19.034,6.729 19.218,6.911 19.218,7.136C19.218,7.361 19.032,7.543 18.807,7.543ZM26.138,20.111C26.365,20.111 26.549,20.293 26.549,20.518C26.549,20.743 26.365,20.925 26.138,20.925C25.911,20.925 25.727,20.743 25.727,20.518C25.727,20.293 25.911,20.111 26.138,20.111Z" style="fill:rgb(39,145,208);"/>
        <path d="M19.963,23.551C20.123,23.551 20.285,23.532 20.439,23.491C20.631,23.442 20.748,23.247 20.698,23.056C20.648,22.866 20.452,22.75 20.259,22.799C20.164,22.823 20.065,22.836 19.963,22.836L11.476,22.836C10.823,22.836 10.293,22.311 10.293,21.664L10.293,13.254C10.293,13.155 10.306,13.057 10.33,12.96C10.379,12.77 10.263,12.575 10.07,12.525C9.878,12.476 9.681,12.592 9.631,12.782C9.592,12.937 9.571,13.095 9.571,13.254L9.571,14.042L6.373,14.042C6.222,13.599 5.798,13.277 5.299,13.277C4.674,13.277 4.166,13.781 4.166,14.4C4.166,15.019 4.674,15.522 5.299,15.522C5.798,15.522 6.222,15.201 6.373,14.757L9.569,14.757L9.569,15.571L8.001,15.571C7.802,15.571 7.64,15.732 7.64,15.929C7.64,16.126 7.802,16.287 8.001,16.287L9.569,16.287C9.569,18.476 9.569,16.938 9.569,18.631L8.001,18.631C7.802,18.631 7.64,18.791 7.64,18.988C7.64,19.185 7.802,19.346 8.001,19.346L9.569,19.346C9.569,23.365 9.569,18.785 9.569,21.664C9.569,22.705 10.423,23.551 11.473,23.551L12.269,23.551L12.269,26.717C11.821,26.867 11.497,27.287 11.497,27.78C11.497,28.399 12.005,28.902 12.63,28.902C13.255,28.902 13.763,28.399 13.763,27.78C13.763,27.285 13.439,26.865 12.991,26.717L12.991,23.551L13.813,23.551L13.813,25.104C13.813,25.301 13.975,25.462 14.174,25.462C14.372,25.462 14.535,25.301 14.535,25.104L14.535,23.551C17.974,23.551 12.191,23.551 16.9,23.551L16.9,25.104C16.9,25.301 17.062,25.462 17.261,25.462C17.46,25.462 17.622,25.301 17.622,25.104L17.622,23.551L19.963,23.551ZM5.301,14.809C5.074,14.809 4.89,14.627 4.89,14.402C4.89,14.177 5.074,13.995 5.301,13.995C5.528,13.995 5.712,14.177 5.712,14.402C5.712,14.625 5.528,14.809 5.301,14.809ZM13.043,27.782C13.043,28.007 12.859,28.189 12.632,28.189C12.405,28.189 12.221,28.007 12.221,27.782C12.221,27.557 12.405,27.375 12.632,27.375C12.859,27.375 13.043,27.559 13.043,27.782Z" style="fill:rgb(39,145,208);"/>
        <path d="M19.552,16.503C19.552,15.739 18.988,15.089 18.214,14.88C18.238,14.785 18.249,14.689 18.249,14.592C18.249,13.868 17.6,13.279 16.802,13.279C16.37,13.279 15.983,13.453 15.717,13.727C15.451,13.453 15.064,13.279 14.632,13.279C13.836,13.279 13.187,13.868 13.187,14.592C13.187,14.691 13.2,14.787 13.222,14.88C12.448,15.089 11.884,15.739 11.884,16.503C11.884,16.878 12.018,17.23 12.264,17.521C12.022,17.829 11.884,18.206 11.884,18.605C11.884,19.213 12.212,19.781 12.753,20.134C12.753,20.963 13.499,21.64 14.415,21.64C14.943,21.64 15.412,21.417 15.717,21.07C16.022,21.417 16.493,21.64 17.018,21.64C17.9,21.64 18.625,21.015 18.679,20.229C19.215,19.92 19.55,19.38 19.55,18.798C19.55,18.369 19.366,17.96 19.048,17.652C19.368,17.341 19.552,16.932 19.552,16.503ZM18.274,17.966C18.623,18.148 18.83,18.459 18.83,18.798C18.83,19.05 18.711,19.29 18.512,19.47C18.322,19.121 17.987,18.845 17.563,18.712C17.373,18.652 17.17,18.757 17.111,18.945C17.051,19.134 17.157,19.335 17.347,19.393C17.715,19.509 17.963,19.804 17.963,20.134C17.963,20.569 17.542,20.923 17.023,20.923C16.504,20.923 16.082,20.569 16.082,20.134L16.082,17.842C16.082,17.407 16.504,17.054 17.023,17.054C17.222,17.054 17.384,16.893 17.384,16.696C17.384,16.499 17.222,16.338 17.023,16.338C16.672,16.338 16.348,16.437 16.082,16.604L16.082,16.148C16.082,15.951 15.92,15.79 15.721,15.79C15.522,15.79 15.36,15.951 15.36,16.148L15.36,18.134C15.239,18.059 15.105,17.994 14.962,17.951C14.772,17.891 14.569,17.996 14.511,18.185C14.45,18.373 14.556,18.575 14.746,18.633C15.114,18.748 15.362,19.044 15.362,19.374L15.362,20.136C15.362,20.571 14.941,20.925 14.422,20.925C13.903,20.925 13.481,20.571 13.481,20.136C13.481,19.95 13.561,19.768 13.706,19.627C13.847,19.487 13.849,19.26 13.709,19.121C13.568,18.982 13.339,18.98 13.198,19.119C13.112,19.205 13.038,19.297 12.976,19.395C12.749,19.181 12.615,18.9 12.615,18.607C12.615,18.078 13.034,17.611 13.635,17.474C13.83,17.429 13.951,17.238 13.905,17.045C13.86,16.852 13.667,16.733 13.473,16.778C13.231,16.833 13.008,16.925 12.811,17.045C12.684,16.887 12.615,16.698 12.615,16.505C12.615,15.968 13.129,15.529 13.765,15.524C13.767,15.524 13.771,15.524 13.773,15.524C13.855,15.524 13.938,15.496 14.007,15.439C14.145,15.323 14.173,15.126 14.08,14.978C14.078,14.974 14.076,14.97 14.072,14.965C14.07,14.963 14.067,14.961 14.067,14.959C14.061,14.95 14.057,14.944 14.05,14.935C13.99,14.865 13.918,14.749 13.918,14.592C13.918,14.263 14.242,13.995 14.642,13.995C15.042,13.995 15.367,14.263 15.367,14.592C15.367,14.79 15.529,14.95 15.728,14.95C15.927,14.95 16.089,14.79 16.089,14.592C16.089,14.263 16.413,13.995 16.813,13.995C17.213,13.995 17.537,14.263 17.537,14.592C17.537,14.68 17.513,14.755 17.483,14.817C17.278,14.837 17.079,14.886 16.891,14.965C16.707,15.042 16.621,15.252 16.698,15.434C16.776,15.616 16.988,15.702 17.172,15.625C17.328,15.561 17.496,15.526 17.671,15.524L17.691,15.524C18.326,15.529 18.841,15.966 18.841,16.505C18.841,16.844 18.633,17.155 18.285,17.337C18.166,17.399 18.093,17.521 18.093,17.654C18.082,17.784 18.156,17.904 18.274,17.966Z" style="fill:white;"/>
        <path d="M27.682,17.097L21.868,17.097L21.868,17.095L21.868,17.81L27.727,17.81C27.904,17.789 28.043,17.637 28.043,17.454C28.043,17.257 27.881,17.097 27.682,17.097ZM21.868,14.757L21.868,14.753L22.958,14.753C23.364,14.753 23.745,14.597 24.032,14.312L26.406,11.96C26.562,12.037 26.733,12.078 26.91,12.078C27.212,12.078 27.498,11.96 27.71,11.75C27.924,11.538 28.043,11.255 28.043,10.955C28.043,10.655 27.924,10.372 27.71,10.163C27.496,9.95 27.21,9.835 26.91,9.835C26.607,9.835 26.324,9.95 26.11,10.163C25.896,10.375 25.777,10.657 25.777,10.955C25.777,11.131 25.818,11.302 25.896,11.454L23.522,13.806C23.371,13.956 23.172,14.038 22.958,14.038L22.902,14.038L22.902,14.042L21.868,14.042L21.868,14.757ZM26.618,10.668C26.696,10.591 26.799,10.548 26.908,10.548C27.018,10.548 27.119,10.591 27.197,10.668C27.275,10.745 27.318,10.848 27.318,10.955C27.318,11.064 27.275,11.165 27.197,11.242C27.119,11.319 27.016,11.362 26.908,11.362C26.797,11.362 26.696,11.319 26.618,11.242C26.54,11.165 26.497,11.062 26.497,10.955C26.499,10.846 26.542,10.745 26.618,10.668Z" style="fill:rgb(247,143,59);"/>
        <path d="M15.358,5.608L15.358,11.368L15.356,11.368L16.078,11.368L16.078,5.563C16.057,5.388 15.903,5.25 15.719,5.25C15.52,5.25 15.358,5.411 15.358,5.608ZM12.997,11.368L12.993,11.368L12.993,10.289C12.993,9.886 12.835,9.509 12.548,9.224L10.174,6.872C10.252,6.718 10.293,6.549 10.293,6.373C10.293,6.073 10.176,5.79 9.962,5.58C9.748,5.368 9.463,5.25 9.16,5.25C8.857,5.25 8.572,5.368 8.36,5.58C8.146,5.792 8.029,6.075 8.029,6.373C8.029,6.673 8.148,6.954 8.36,7.166C8.574,7.378 8.859,7.495 9.16,7.495C9.337,7.495 9.51,7.455 9.664,7.378L12.038,9.73C12.189,9.88 12.271,10.077 12.271,10.289L12.271,10.345L12.275,10.345L12.275,11.368L12.997,11.368ZM8.868,6.662C8.79,6.585 8.747,6.482 8.747,6.375C8.747,6.266 8.79,6.165 8.868,6.088C8.946,6.011 9.05,5.968 9.158,5.968C9.268,5.968 9.37,6.011 9.448,6.088C9.525,6.165 9.569,6.268 9.569,6.375C9.569,6.484 9.525,6.585 9.448,6.662C9.37,6.739 9.266,6.782 9.158,6.782C9.05,6.78 8.946,6.737 8.868,6.662Z" style="fill:rgb(247,143,59);"/>
        <path d="M3.758,17.814L9.571,17.814L9.571,17.816L9.571,17.101L3.712,17.101C3.535,17.122 3.396,17.275 3.396,17.457C3.396,17.654 3.559,17.814 3.758,17.814ZM9.571,20.154L9.571,20.158L8.481,20.158C8.075,20.158 7.694,20.314 7.407,20.599L5.033,22.951C4.877,22.874 4.707,22.833 4.529,22.833C4.227,22.833 3.941,22.949 3.727,23.161C3.513,23.373 3.396,23.656 3.396,23.954C3.396,24.254 3.513,24.536 3.727,24.749C3.941,24.961 4.227,25.076 4.529,25.076C4.832,25.076 5.115,24.961 5.329,24.749C5.543,24.536 5.66,24.254 5.66,23.954C5.66,23.778 5.619,23.607 5.541,23.455L7.915,21.103C8.066,20.955 8.265,20.871 8.479,20.871L8.535,20.871L8.535,20.867L9.569,20.867L9.571,20.154ZM4.821,24.245C4.743,24.322 4.64,24.365 4.531,24.365C4.421,24.365 4.32,24.322 4.242,24.245C4.164,24.168 4.121,24.065 4.121,23.958C4.121,23.849 4.164,23.748 4.242,23.671C4.32,23.594 4.423,23.551 4.531,23.551C4.642,23.551 4.743,23.594 4.821,23.671C4.899,23.748 4.942,23.851 4.942,23.958C4.94,24.065 4.899,24.168 4.821,24.245Z" style="fill:rgb(247,143,59);"/>
        <path d="M16.08,29.311L16.08,23.551L16.082,23.551L15.36,23.551L15.36,29.356C15.382,29.532 15.536,29.669 15.719,29.669C15.918,29.669 16.08,29.508 16.08,29.311ZM18.441,23.551L18.445,23.551L18.445,24.631C18.445,25.033 18.603,25.41 18.891,25.695L21.265,28.047C21.187,28.202 21.146,28.371 21.146,28.547C21.146,28.847 21.262,29.129 21.476,29.339C21.691,29.551 21.976,29.669 22.279,29.669C22.581,29.669 22.866,29.551 23.078,29.339C23.292,29.127 23.409,28.844 23.409,28.547C23.409,28.247 23.29,27.966 23.078,27.754C22.864,27.542 22.579,27.424 22.279,27.424C22.101,27.424 21.928,27.465 21.775,27.542L19.401,25.19C19.25,25.04 19.168,24.843 19.168,24.631L19.168,24.575L19.163,24.575L19.163,23.551L18.441,23.551ZM22.568,28.26C22.646,28.337 22.689,28.44 22.689,28.547C22.689,28.656 22.646,28.757 22.568,28.834C22.49,28.911 22.387,28.954 22.279,28.954C22.168,28.954 22.067,28.911 21.989,28.834C21.911,28.757 21.868,28.654 21.868,28.547C21.868,28.437 21.911,28.337 21.989,28.26C22.067,28.182 22.17,28.14 22.279,28.14C22.389,28.14 22.49,28.182 22.568,28.26Z" style="fill:rgb(247,143,59);"/>
    </g>
</svg>
